<?xml version="1.0" encoding="UTF-8"?>
<svg id="Layer_1" data-name="Layer 1" xmlns="http://www.w3.org/2000/svg" viewBox="0 0 284.17 271.15">
  <defs>
    <style>
      .cls-1 {
        fill: #185eea;
      }
    </style>
  </defs>
  <rect class="cls-1" x="130.48" y="61.06" width="36.12" height="145.33"/>
  <rect class="cls-1" x="166.75" y="205.88" width="72.39" height="35.74"/>
  <rect class="cls-1" x="167.1" y="25.05" width="72.39" height="35.74"/>
  <rect class="cls-1" x="239.63" y="170.14" width="36.12" height="36.13"/>
  <rect class="cls-1" x="239.63" y="60.56" width="36.12" height="36.13"/>
  <g>
    <path class="cls-1" d="M54.83,187.12c17.72-16.27,36.63-24.97,50.99-29.59-2.43-3.33-5.23-6.37-8.34-9.06-13.77,4.23-32.44,12.49-49.89,28.51-12.56,11.53-22.89,25.74-30.09,41.31,2.1,3.22,4.53,6.21,7.25,8.9,7.5-15.05,17.78-28.78,30.08-40.07Z"/>
    <path class="cls-1" d="M42.57,171.52c16.32-14.98,33.64-23.54,47.49-28.41-8.06-4.85-17.5-7.64-27.59-7.64-29.61,0-53.62,24.01-53.62,53.62,0,7.51,1.54,14.65,4.33,21.13,7.43-14.51,17.46-27.75,29.39-38.7Z"/>
    <path class="cls-1" d="M67.37,201.67c-18.74,9.15-30.1,22.47-36.06,31.06,8.78,6.28,19.53,9.97,31.15,9.97,28.48,0,51.77-22.2,53.51-50.24-11.11-.84-29.26-.24-48.61,9.21Z"/>
  </g>
  <path class="cls-1" d="M106.56,75.15V24.96h-16v107.42c6.04,3.15,11.46,7.31,16.03,12.24v-69.47h-.03Z"/>
</svg>