<?xml version="1.0" encoding="UTF-8"?>
<svg id="Layer_1" data-name="Layer 1" xmlns="http://www.w3.org/2000/svg" viewBox="0 0 293.11 271.66">
  <defs>
    <style>
      .cls-1 {
        font-family: Bronova-Regular, Bronova;
        font-size: 32.64px;
        letter-spacing: .02em;
        stroke: #185eea;
        stroke-miterlimit: 10;
        stroke-width: .9px;
      }

      .cls-1, .cls-2 {
        fill: #185eea;
      }
    </style>
  </defs>
  <g>
    <rect class="cls-2" x="134.79" y="70.59" width="19.19" height="77.19"/>
    <rect class="cls-2" x="154.06" y="147.52" width="38.45" height="18.98"/>
    <rect class="cls-2" x="154.24" y="51.47" width="38.45" height="18.98"/>
    <rect class="cls-2" x="192.77" y="128.53" width="19.19" height="19.19"/>
    <rect class="cls-2" x="192.77" y="70.32" width="19.19" height="19.19"/>
    <g>
      <path class="cls-2" d="M94.61,137.55c9.41-8.64,19.46-13.26,27.08-15.72-1.29-1.77-2.78-3.38-4.43-4.81-7.31,2.25-17.23,6.64-26.5,15.15-6.67,6.12-12.16,13.67-15.98,21.94,1.11,1.71,2.41,3.3,3.85,4.73,3.98-7.99,9.44-15.29,15.98-21.28Z"/>
      <path class="cls-2" d="M88.1,129.26c8.67-7.96,17.87-12.5,25.23-15.09-4.28-2.57-9.3-4.06-14.66-4.06-15.73,0-28.48,12.75-28.48,28.48,0,3.99.82,7.78,2.3,11.23,3.95-7.71,9.27-14.74,15.61-20.56Z"/>
      <path class="cls-2" d="M101.27,145.28c-9.95,4.86-15.99,11.93-19.15,16.5,4.66,3.33,10.38,5.3,16.55,5.3,15.13,0,27.5-11.79,28.42-26.69-5.9-.45-15.54-.13-25.82,4.89Z"/>
    </g>
    <path class="cls-2" d="M122.09,78.08v-26.66h-8.5v57.05c3.21,1.67,6.09,3.88,8.52,6.5v-36.9h-.02Z"/>
  </g>
  <text class="cls-1" transform="translate(7.05 215.54)"><tspan x="0" y="0">DESIGN &amp; CODE</tspan></text>
</svg>