<?xml version="1.0" encoding="UTF-8"?>
<svg id="Layer_1" data-name="Layer 1" xmlns="http://www.w3.org/2000/svg" viewBox="0 0 288.77 271.91">
  <defs>
    <style>
      .cls-1 {
        font-family: Bronova-Regular, Bronova;
        font-size: 32.64px;
        letter-spacing: .02em;
        stroke: #185eea;
        stroke-miterlimit: 10;
        stroke-width: .9px;
      }

      .cls-1, .cls-2 {
        fill: #185eea;
      }
    </style>
  </defs>
  <path class="cls-2" d="M143.01,11.91c-69.68,0-126.17,56.49-126.17,126.17s56.49,126.17,126.17,126.17,126.17-56.49,126.17-126.17S212.69,11.91,143.01,11.91ZM113.61,105.09v-30.95h9.29v29.13h.02v40.32c-2.66-2.87-5.8-5.28-9.31-7.11v-31.41ZM66.18,169.42c0-17.19,13.94-31.13,31.13-31.13,5.86,0,11.34,1.62,16.02,4.43-8.04,2.83-18.09,7.8-27.57,16.49-6.93,6.36-12.75,14.04-17.06,22.47-1.62-3.76-2.51-7.91-2.51-12.27ZM71.2,186.37c4.18-9.04,10.18-17.29,17.47-23.98,10.13-9.3,20.97-14.1,28.96-16.55,1.81,1.56,3.43,3.33,4.84,5.26-8.34,2.68-19.31,7.73-29.6,17.18-7.14,6.56-13.11,14.53-17.46,23.26-1.58-1.56-2.99-3.3-4.21-5.17ZM97.3,200.54c-6.74,0-12.99-2.15-18.08-5.79,3.46-4.99,10.05-12.72,20.93-18.03,11.23-5.48,21.77-5.83,28.21-5.34-1.01,16.28-14.53,29.16-31.06,29.16ZM157.75,179.46h-20.97v-84.36h20.97v84.36ZM199.86,199.91h-42.02v-20.75h42.02v20.75ZM200.06,94.95h-42.02v-20.75h42.02v20.75ZM221.11,179.39h-20.97v-20.97h20.97v20.97ZM221.11,115.78h-20.97v-20.97h20.97v20.97Z"/>
  <text class="cls-1" transform="translate(-310.31 216.31)"><tspan x="0" y="0">DESIGN &amp; CODE</tspan></text>
</svg>