<?xml version="1.0" encoding="UTF-8"?>
<svg id="Layer_1" data-name="Layer 1" xmlns="http://www.w3.org/2000/svg" viewBox="0 0 292.2 278.81">
  <defs>
    <style>
      .cls-1 {
        font-family: Bronova-Regular, Bronova;
        font-size: 32.64px;
        letter-spacing: .02em;
        stroke: #185eea;
        stroke-miterlimit: 10;
        stroke-width: .9px;
      }

      .cls-1, .cls-2 {
        fill: #185eea;
      }
    </style>
  </defs>
  <path class="cls-2" d="M144.04,30.56c-42.73,0-77.36,34.64-77.36,77.36s34.64,77.36,77.36,77.36,77.36-34.64,77.36-77.36S186.77,30.56,144.04,30.56ZM126.01,87.7v-18.97h5.7v17.86h.01v24.72c-1.63-1.76-3.56-3.24-5.71-4.36v-19.26ZM96.93,127.14c0-10.54,8.54-19.08,19.08-19.08,3.59,0,6.95.99,9.82,2.72-4.93,1.73-11.09,4.78-16.9,10.11-4.25,3.9-7.82,8.61-10.46,13.78-.99-2.31-1.54-4.85-1.54-7.52ZM100.01,137.53c2.56-5.54,6.24-10.6,10.71-14.7,6.21-5.7,12.86-8.64,17.76-10.15,1.11.96,2.11,2.04,2.97,3.22-5.11,1.65-11.84,4.74-18.15,10.53-4.38,4.02-8.04,8.91-10.71,14.26-.97-.96-1.83-2.02-2.58-3.17ZM116.01,146.22c-4.13,0-7.96-1.32-11.09-3.55,2.12-3.06,6.16-7.8,12.83-11.05,6.88-3.36,13.35-3.58,17.3-3.28-.62,9.98-8.91,17.88-19.05,17.88ZM153.08,133.29h-12.86v-51.72h12.86v51.72ZM178.89,145.84h-25.76v-12.72h25.76v12.72ZM179.02,81.48h-25.76v-12.72h25.76v12.72ZM191.93,133.25h-12.86v-12.86h12.86v12.86ZM191.93,94.25h-12.86v-12.86h12.86v12.86Z"/>
  <text class="cls-1" transform="translate(7.29 232.06)"><tspan x="0" y="0">DESIGN &amp; CODE</tspan></text>
</svg>